<svg version="1.1" id="Layer_1" xmlns="http://www.w3.org/2000/svg" xmlns:xlink="http://www.w3.org/1999/xlink" x="0px" y="0px"
	 width="100%" viewBox="0 0 232 294" enable-background="new 0 0 232 294" xml:space="preserve">
<path fill="#FDFEFD" opacity="1.000000" stroke="none" 
	d="
M233.000000,81.000000 
	C233.000000,152.632828 233.000000,223.765671 233.000000,294.949249 
	C155.737289,294.949249 78.474541,294.949249 1.105897,294.949249 
	C1.105897,197.117294 1.105897,99.234428 1.105897,1.175782 
	C78.333000,1.175782 155.666473,1.175782 233.000000,1.175782 
	C233.000000,27.525270 233.000000,54.012634 233.000000,81.000000 
M92.454437,142.593292 
	C92.120522,145.008606 91.786613,147.423935 91.121902,150.501389 
	C90.691132,153.313721 90.260361,156.126068 89.395203,159.511063 
	C89.236290,161.933853 88.475029,164.510330 89.045654,166.746994 
	C90.183174,171.205734 94.417229,173.501938 99.121628,172.938034 
	C103.891403,172.366318 106.582466,168.698624 107.554314,161.421799 
	C107.965302,158.611649 108.376282,155.801483 109.206718,152.292770 
	C109.636650,149.563751 110.066582,146.834732 110.848412,143.501602 
	C111.218697,141.333984 111.588989,139.166351 112.289955,136.297668 
	C112.888741,132.875183 113.487526,129.452698 114.533325,125.416718 
	C115.085556,121.968521 115.637787,118.520325 116.640099,114.457260 
	C117.334290,110.301094 118.028481,106.144936 118.988937,101.273499 
	C120.952499,97.168106 122.916061,93.062714 125.505920,88.671799 
	C133.036972,81.926407 141.575485,81.739410 150.976578,85.277924 
	C152.567062,86.359329 154.157532,87.440727 155.990082,89.113884 
	C157.541916,91.133232 159.093750,93.152580 160.769272,95.934479 
	C161.401550,98.622810 162.033829,101.311142 162.380157,104.708466 
	C161.906830,108.139320 161.433487,111.570183 160.611801,115.696808 
	C160.062912,118.798424 159.514008,121.900047 158.803055,125.799698 
	C159.525009,132.656479 162.108017,134.794220 170.562469,135.547577 
	C172.802399,136.001709 175.031662,136.518967 177.284119,136.898849 
	C186.247101,138.410553 186.249451,138.394730 185.175339,129.555832 
	C185.155716,129.394257 185.171387,129.228378 185.642227,128.569122 
	C188.393799,127.001518 191.009644,125.093048 193.923462,123.932961 
	C201.385483,120.962097 202.593765,115.926208 196.728531,109.449692 
	C194.508698,107.255997 192.288864,105.062302 189.930328,102.217194 
	C188.116196,100.074875 186.302078,97.932556 184.047333,95.177460 
	C183.100296,92.427887 182.153244,89.678322 181.233276,86.122688 
	C181.466370,83.081108 181.699478,80.039536 182.079102,76.215927 
	C181.937119,74.445839 181.795120,72.675751 181.637604,70.123596 
	C181.312332,68.345871 180.987061,66.568138 180.612198,63.972408 
	C179.915085,61.729660 179.217972,59.486912 178.525864,56.615906 
	C178.048935,55.398365 177.572006,54.180820 177.061249,52.272453 
	C176.318054,50.849667 175.574860,49.426880 174.708023,47.354954 
	C173.390488,45.453140 172.072952,43.551323 170.346954,41.062065 
	C168.222580,38.410419 166.098190,35.758778 163.720917,32.516941 
	C162.307571,31.279276 160.894211,30.041611 159.120285,28.227928 
	C156.958939,26.732750 154.797607,25.237574 152.259186,23.139610 
	C149.908661,21.726122 147.558136,20.312634 144.766968,18.350410 
	C134.211884,12.763185 123.078064,9.226071 110.452034,8.492949 
	C107.631599,8.591505 104.811172,8.690062 101.306000,8.525377 
	C98.538414,8.793575 95.770821,9.061774 92.240936,9.191151 
	C89.494179,9.797821 86.747421,10.404490 83.228615,10.948032 
	C80.825699,11.729044 78.422775,12.510056 75.296143,13.237709 
	C72.518105,14.444467 69.740074,15.651224 66.241196,16.918734 
	C63.494873,18.628645 60.748550,20.338556 57.319180,22.133673 
	C54.185326,24.676579 51.051468,27.219482 47.303703,30.063732 
	C44.639835,33.256599 41.975967,36.449471 38.681553,39.828957 
	C36.703590,43.188042 34.725628,46.547123 32.236698,50.368923 
	C30.617290,54.875954 28.997887,59.382980 27.017462,64.481880 
	C26.273487,69.517120 25.270996,74.536430 24.959019,79.598289 
	C24.876312,80.940254 26.700144,83.360146 28.020588,83.662979 
	C33.942562,85.021103 39.998741,85.794029 46.767014,87.073059 
	C55.026890,89.204666 58.296318,87.777596 60.828159,80.508324 
	C61.580696,76.679474 62.333233,72.850616 63.533550,68.418182 
	C64.300674,64.277962 65.067802,60.137745 66.094772,55.303154 
	C67.815079,51.898552 69.535385,48.493946 71.813408,44.811211 
	C73.594971,43.378281 75.376526,41.945351 77.969955,40.314201 
	C81.648346,39.672676 85.326729,39.031147 89.733948,38.732471 
	C97.963158,39.933407 103.394646,44.760307 106.996323,52.815063 
	C107.359138,55.209488 107.721954,57.603909 107.926628,60.806252 
	C107.808220,62.169361 107.689812,63.532475 107.142708,65.446815 
	C106.813156,67.297165 106.483604,69.147514 105.991241,71.825493 
	C105.815056,73.501251 105.638870,75.177017 105.152191,77.520386 
	C104.764816,80.012161 104.377434,82.503944 103.498955,85.578468 
	C102.730957,90.051315 101.962959,94.524162 100.779694,99.677361 
	C100.162697,103.442802 99.545708,107.208244 98.440948,111.572784 
	C97.865807,115.359627 97.290665,119.146461 96.286858,123.543785 
	C95.743050,127.002357 95.199234,130.460922 94.259552,134.513306 
	C93.818810,137.000793 93.378075,139.488266 92.454437,142.593292 
M78.771973,57.701862 
	C78.190582,60.467674 77.609192,63.233486 76.694778,66.701424 
	C75.995979,70.426727 75.297180,74.152023 74.209328,78.490364 
	C73.321785,81.943321 72.434250,85.396286 71.081398,89.292953 
	C68.982330,91.833954 66.883263,94.374954 64.098640,97.046516 
	C61.371033,98.264671 58.643429,99.482826 55.055820,100.689575 
	C49.410534,100.001167 43.765244,99.312759 37.453716,98.261597 
	C36.651932,98.114143 35.851608,97.850380 35.048103,97.840302 
	C32.254108,97.805260 29.459009,97.858192 26.664331,97.877655 
	C27.325676,100.476959 27.983065,103.077286 28.660097,105.672501 
	C28.693735,105.801437 28.898155,105.885818 29.099627,106.710083 
	C32.342709,112.493752 35.585793,118.277420 38.993401,124.736832 
	C41.698296,128.824722 44.403187,132.912628 47.122166,137.756699 
	C48.032883,140.854294 48.943600,143.951889 49.843529,147.932144 
	C49.965176,150.289490 50.086819,152.646851 49.972134,155.771851 
	C49.612759,158.168015 49.253384,160.564178 48.442802,163.491409 
	C47.920963,165.311676 47.399124,167.131958 46.380486,169.452164 
	C46.219379,171.646027 46.058273,173.839874 45.865261,176.776276 
	C47.754257,179.563324 49.643257,182.350372 51.764198,185.809677 
	C54.784412,188.980377 57.804626,192.151077 61.208340,195.842239 
	C64.431633,198.908447 67.654930,201.974670 71.195099,205.649368 
	C75.305923,208.812683 79.416756,211.975998 83.917336,215.726471 
	C92.044090,219.965668 100.025200,224.539566 108.409195,228.187576 
	C110.293938,229.007660 114.010429,227.137344 116.103111,225.504929 
	C117.955070,224.060303 118.720764,221.223129 120.186584,218.336060 
	C121.183975,216.578415 122.181366,214.820770 123.726768,212.623657 
	C124.670990,210.461395 125.615211,208.299118 127.037056,205.729706 
	C127.736763,204.219604 128.436478,202.709488 129.664032,200.755127 
	C130.550873,198.872925 131.437714,196.990738 132.834030,194.671768 
	C133.744003,192.826447 134.653992,190.981140 135.999329,188.752121 
	C137.383438,187.252884 138.767563,185.753632 141.065964,184.145264 
	C150.474518,183.780548 159.887100,183.496063 169.290298,183.024521 
	C176.221268,182.676971 181.622543,177.832748 183.106689,170.122742 
	C183.032745,168.082016 182.958801,166.041306 182.766663,163.342331 
	C182.188675,161.894577 181.610703,160.446838 181.184616,158.332474 
	C181.886154,156.923508 182.587708,155.514542 183.713120,153.523529 
	C183.257858,152.650970 182.974838,151.203308 182.317200,151.006332 
	C179.605789,150.194168 176.780716,149.761429 173.245193,148.904892 
	C169.500397,148.263565 165.755600,147.622238 161.512589,146.510773 
	C158.629410,145.031036 155.746231,143.551300 152.595795,141.474548 
	C150.921783,139.263947 149.247772,137.053345 147.419449,134.022293 
	C146.924286,130.682480 146.429108,127.342659 146.178253,123.257629 
	C146.804260,119.504883 147.430283,115.752136 148.426071,111.333603 
	C148.742279,109.882446 149.075836,108.434814 149.371643,106.979515 
	C150.586136,101.004662 147.970215,96.888016 142.138214,95.576180 
	C137.234985,94.473259 132.748810,97.317627 131.473953,102.717598 
	C130.681458,106.074341 130.439880,109.561134 129.463913,113.578110 
	C128.820007,117.382645 128.176102,121.187187 127.164864,125.765915 
	C126.644417,129.150269 126.123970,132.534637 125.224480,136.521835 
	C124.808983,139.012238 124.393478,141.502655 123.471924,144.575989 
	C123.209900,146.679855 122.947884,148.783707 122.250587,151.519699 
	C122.048370,153.317078 121.846161,155.114471 121.201263,157.495850 
	C121.024979,158.971237 120.848701,160.446625 120.253059,162.421936 
	C120.134087,163.280151 120.015114,164.138367 119.570480,165.648880 
	C119.346260,167.086777 119.122040,168.524689 118.446503,170.448532 
	C117.933449,171.913559 117.420387,173.378586 116.362511,175.221130 
	C114.828125,177.113083 113.293739,179.005051 111.109024,181.062393 
	C108.732643,182.360291 106.356262,183.658188 103.150902,184.936920 
	C102.094826,185.218262 101.038757,185.499588 99.410988,185.452225 
	C98.588936,185.592300 97.766884,185.732361 96.221260,185.667923 
	C92.133812,184.116959 88.046364,182.565994 83.667206,180.419891 
	C81.493454,177.595734 79.319695,174.771576 77.077400,171.133636 
	C76.651497,168.424377 76.225586,165.715103 76.004616,162.235260 
	C76.292641,160.157913 76.580666,158.080566 77.169113,155.295776 
	C77.446350,153.530777 77.723587,151.765778 78.520218,149.427658 
	C78.795013,147.325638 79.069817,145.223602 79.762688,142.509552 
	C80.162292,140.007141 80.561897,137.504715 81.203888,134.245163 
	C81.584496,131.858917 81.965096,129.472687 82.724701,126.470261 
	C83.209648,123.671539 83.694595,120.872818 84.637024,117.463623 
	C85.158707,113.992508 85.680389,110.521393 86.658508,106.455635 
	C87.207634,102.996094 87.756752,99.536560 88.713219,95.479408 
	C89.409073,91.649483 90.104927,87.819557 91.055305,83.232567 
	C91.628967,80.154190 92.202621,77.075821 93.068405,73.272430 
	C93.510445,70.516441 93.952484,67.760452 94.777863,64.283455 
	C96.498306,57.520134 94.647385,52.982941 89.489906,51.320995 
	C85.170753,49.929192 81.181244,52.109806 78.771973,57.701862 
M33.693279,247.809113 
	C26.507347,241.822250 18.041939,241.250076 11.284307,246.294525 
	C4.910234,251.052643 2.685161,260.044373 6.056925,267.418701 
	C9.247875,274.397583 17.397848,278.274231 25.221466,276.917877 
	C28.014980,276.433594 30.962961,276.840302 33.840431,276.840302 
	C33.920006,277.317413 33.999577,277.794525 34.079147,278.271637 
	C35.356777,277.071320 36.634407,275.871002 37.907875,274.674591 
	C36.792297,273.261414 35.893539,272.122894 35.061878,271.069366 
	C40.349503,262.340118 40.051735,255.802734 33.693279,247.809113 
M198.435883,270.609924 
	C203.001953,269.712402 205.774033,271.421967 206.205032,276.089417 
	C208.656403,276.089417 210.826553,276.089417 213.324173,276.089417 
	C209.385941,264.937408 205.632553,254.308838 201.441055,242.439651 
	C198.398209,243.647675 193.988098,244.037872 193.184891,245.946213 
	C189.082855,255.692169 185.912033,265.830078 181.892380,277.327118 
	C185.242538,276.342377 189.319611,276.005005 189.519699,274.939545 
	C190.506241,269.686340 194.123199,270.642151 198.435883,270.609924 
M76.850533,277.044098 
	C81.784157,276.609833 86.717781,276.175568 91.647591,275.741638 
	C91.647591,268.300293 91.647591,260.729980 91.647591,253.831146 
	C87.003494,253.271103 82.772354,252.715424 78.528603,252.283661 
	C77.569511,252.186081 76.545723,252.434494 75.587257,252.668930 
	C70.485542,253.916824 67.006577,258.382599 66.724319,263.973663 
	C66.400909,270.379944 69.421211,274.595215 76.850533,277.044098 
M171.110260,277.083130 
	C169.385788,278.441071 167.661316,279.799011 165.567596,281.447754 
	C165.648987,282.583984 165.762299,284.166046 165.880035,285.809845 
	C171.161743,286.048126 174.847672,283.846832 176.643387,279.535675 
	C180.208054,270.977600 183.299088,262.222260 186.733871,253.157822 
	C184.158096,253.157822 182.212570,253.157822 180.217026,253.157822 
	C178.496689,257.998199 176.814758,262.730530 174.787628,268.434082 
	C173.124741,264.019531 171.644775,260.825714 170.728180,257.477692 
	C169.485092,252.937119 166.874313,251.979935 162.631332,253.486771 
	C165.637100,261.253082 168.555435,268.793488 171.110260,277.083130 
M61.310863,276.549591 
	C62.154343,275.998047 63.718822,275.463074 63.731930,274.892456 
	C63.898163,267.655426 63.841312,260.413269 63.841312,253.243774 
	C61.447906,253.243774 59.708641,253.243774 57.601902,253.243774 
	C57.601902,257.847687 57.747288,262.156433 57.552460,266.449738 
	C57.415089,269.476868 55.692085,271.497406 52.479912,271.438721 
	C49.171600,271.378296 47.898369,269.270386 47.921532,266.143951 
	C47.953224,261.866058 47.929447,257.587708 47.929447,253.129791 
	C45.679516,253.129791 43.912285,253.129791 41.866810,253.129791 
	C41.866810,258.585297 41.567467,263.890076 41.946178,269.145996 
	C42.373859,275.081543 47.591381,278.250671 53.437386,276.918488 
	C55.681122,276.407227 58.096649,276.649811 61.310863,276.549591 
M111.647980,252.679977 
	C106.532227,252.908707 101.416466,253.137436 96.299126,253.366241 
	C96.299126,261.083466 96.299126,268.644104 96.299126,276.222717 
	C98.374420,276.222717 100.123001,276.222717 102.141258,276.222717 
	C102.141258,271.921295 102.097054,267.934662 102.154762,263.949524 
	C102.203941,260.553192 103.424629,257.986908 107.339775,258.048401 
	C111.098228,258.107422 111.956596,260.678345 111.951485,263.846466 
	C111.944862,267.953827 111.949883,272.061218 111.949883,276.234192 
	C114.275124,276.234192 116.018707,276.234192 118.018646,276.234192 
	C118.018646,270.951813 118.137871,265.969513 117.979874,260.996002 
	C117.859520,257.207153 116.084679,254.331390 111.647980,252.679977 
M156.125031,269.409821 
	C156.125031,265.968628 156.125031,262.527435 156.125031,259.175049 
	C158.075226,258.872162 159.502655,258.650452 161.152313,258.394226 
	C161.069763,256.558685 160.997787,254.958054 160.918289,253.190399 
	C159.248901,253.003159 157.851761,252.846451 156.454605,252.689758 
	C156.249725,252.320923 156.044846,251.952103 155.839966,251.583267 
	C157.431335,250.340790 159.022705,249.098312 160.764389,247.738480 
	C160.764389,246.433136 160.764389,244.711639 160.764389,242.959808 
	C155.830536,242.719635 152.390579,244.224442 150.474670,248.746384 
	C149.776825,250.393463 147.958359,251.574844 147.300812,253.227219 
	C146.703003,254.729385 146.625031,257.990601 146.935684,258.070374 
	C151.981155,259.365936 149.600311,263.320953 149.881226,266.114319 
	C150.208588,269.369659 149.957626,272.683197 149.957626,276.178314 
	C152.185226,276.178314 154.048676,276.178314 156.125061,276.178314 
	C156.125061,273.998993 156.125061,272.181122 156.125031,269.409821 
M123.920883,251.309448 
	C122.607872,252.190781 121.294861,253.072098 118.909607,254.673141 
	C120.266411,256.510834 121.680740,258.426453 123.095078,260.342102 
	C123.917290,262.622711 123.871902,265.437408 123.926178,268.250183 
	C124.064133,275.399719 127.839531,278.003418 135.159882,275.908447 
	C135.159882,274.493225 135.159882,273.039734 135.159882,271.622589 
	C129.368332,270.274231 129.229324,269.907562 130.368958,259.062836 
	C131.877106,258.913788 133.433365,258.760010 135.126968,258.592621 
	C135.126968,256.648834 135.126968,255.044022 135.126968,253.184708 
	C133.416275,253.021652 131.855148,252.872849 130.293167,252.723953 
	C130.057098,250.541107 129.856445,248.685623 129.655777,246.830139 
	C129.237152,246.551910 128.818512,246.273682 128.399887,245.995453 
	C126.904900,247.489792 125.409912,248.984116 123.920883,251.309448 
M221.827484,270.308167 
	C221.827484,261.533630 221.827484,252.759109 221.827484,243.873932 
	C219.305527,243.873932 217.265625,243.873932 215.319199,243.873932 
	C215.319199,254.871078 215.319199,265.473267 215.319199,276.151428 
	C217.603485,276.151428 219.638062,276.151428 221.827515,276.151428 
	C221.827515,274.234863 221.827515,272.740295 221.827484,270.308167 
M144.239639,270.214050 
	C144.239639,264.605438 144.239639,258.996857 144.239639,253.287338 
	C142.069351,253.287338 140.210129,253.287338 138.065094,253.287338 
	C138.065094,257.414673 138.065094,261.197052 138.065094,264.979431 
	C138.065094,268.719818 138.065094,272.460205 138.065094,276.276855 
	C140.429657,276.276855 142.159515,276.276855 144.239716,276.276855 
	C144.239716,274.389038 144.239716,272.759521 144.239639,270.214050 
M143.431488,243.382034 
	C141.602524,243.822693 139.572296,243.942520 138.061432,244.890274 
	C137.578384,245.193283 137.982895,248.239059 138.871231,249.028549 
	C139.767014,249.824661 142.849411,249.883896 143.085083,249.380966 
	C143.836929,247.776489 143.711105,245.760742 143.431488,243.382034 
z"/>
<path fill="#33F7D2" opacity="1.000000" stroke="none" 
	d="
M106.951324,52.017040 
	C103.394646,44.760307 97.963158,39.933407 89.254257,38.275135 
	C82.065842,30.920019 77.439621,22.939274 76.019859,13.291067 
	C78.422775,12.510056 80.825699,11.729044 83.653168,11.341658 
	C87.766533,18.371265 90.386101,25.969887 95.337257,31.469402 
	C112.763977,50.826199 139.960220,53.146938 161.079559,37.851646 
	C162.463699,36.849213 163.028107,34.714931 163.973816,33.107132 
	C166.098190,35.758778 168.222580,38.410419 170.165283,41.507545 
	C168.288025,42.985367 166.486343,43.877937 164.913498,45.071976 
	C151.428314,55.309303 136.297760,58.023144 119.922050,54.945595 
	C115.568771,54.127476 111.273323,53.001610 106.951324,52.017040 
z"/>
<path fill="#2CF7D9" opacity="1.000000" stroke="none" 
	d="
M163.847366,32.812035 
	C163.028107,34.714931 162.463699,36.849213 161.079559,37.851646 
	C139.960220,53.146938 112.763977,50.826199 95.337257,31.469402 
	C90.386101,25.969887 87.766533,18.371265 84.039185,11.373222 
	C86.747421,10.404490 89.494179,9.797821 92.632584,9.618809 
	C94.873550,14.075347 96.533493,18.204792 98.609108,22.113512 
	C103.992760,32.251850 123.066002,40.891666 134.354523,39.535927 
	C143.961884,38.382088 152.022659,34.524914 159.480865,28.803947 
	C160.894211,30.041611 162.307571,31.279276 163.847366,32.812035 
z"/>
<path fill="#0C0C0C" opacity="1.000000" stroke="none" 
	d="
M33.943298,248.074890 
	C40.051735,255.802734 40.349503,262.340118 35.061878,271.069366 
	C35.893539,272.122894 36.792297,273.261414 37.907875,274.674591 
	C36.634407,275.871002 35.356777,277.071320 34.079147,278.271637 
	C33.999577,277.794525 33.920006,277.317413 33.840431,276.840302 
	C30.962961,276.840302 28.014980,276.433594 25.221466,276.917877 
	C17.397848,278.274231 9.247875,274.397583 6.056925,267.418701 
	C2.685161,260.044373 4.910234,251.052643 11.284307,246.294525 
	C18.041939,241.250076 26.507347,241.822250 33.943298,248.074890 
M21.504982,249.195755 
	C13.393576,250.626450 9.397238,256.095123 11.336668,263.110291 
	C12.944972,268.927765 18.650303,271.859375 24.663506,269.776764 
	C23.153679,268.008789 21.693823,266.299347 20.103182,264.436737 
	C21.547726,263.143250 22.883921,261.946747 24.352020,260.632172 
	C26.436499,262.554504 28.330992,264.301636 30.317085,266.133240 
	C34.559162,257.650208 31.339705,251.207840 21.504982,249.195755 
z"/>
<path fill="#27F7E0" opacity="1.000000" stroke="none" 
	d="
M159.300568,28.515938 
	C152.022659,34.524914 143.961884,38.382088 134.354523,39.535927 
	C123.066002,40.891666 103.992760,32.251850 98.609108,22.113512 
	C96.533493,18.204792 94.873550,14.075347 93.013733,9.688219 
	C95.770821,9.061774 98.538414,8.793575 101.654648,9.053357 
	C104.494820,20.933659 112.769676,26.682396 122.881035,29.872286 
	C133.682434,33.279861 143.709656,30.613853 152.636261,23.742393 
	C154.797607,25.237574 156.958939,26.732750 159.300568,28.515938 
z"/>
<path fill="#B4F652" opacity="1.000000" stroke="none" 
	d="
M45.897163,176.033752 
	C46.058273,173.839874 46.219379,171.646027 47.000130,169.249786 
	C49.421127,169.868866 51.184719,170.788971 53.030128,171.495300 
	C63.125324,175.359314 72.639671,181.127029 83.958908,181.015045 
	C88.046364,182.565994 92.133812,184.116959 96.742035,186.022705 
	C98.169434,186.178650 99.076065,185.979797 99.982689,185.780945 
	C101.038757,185.499588 102.094826,185.218262 103.784454,185.242462 
	C106.898407,186.363403 109.336990,187.692871 111.866982,187.898697 
	C119.747368,188.539764 127.662384,188.755264 135.563965,189.135818 
	C134.653992,190.981140 133.744003,192.826447 132.107361,194.857254 
	C123.827934,194.363190 116.149376,194.323639 108.749069,192.868729 
	C94.059708,189.980789 79.461807,186.555527 64.952492,182.856598 
	C58.443924,181.197342 52.239567,178.344803 45.897163,176.033752 
z"/>
<path fill="#101010" opacity="1.000000" stroke="none" 
	d="
M197.967560,270.609924 
	C194.123199,270.642151 190.506241,269.686340 189.519699,274.939545 
	C189.319611,276.005005 185.242538,276.342377 181.892380,277.327118 
	C185.912033,265.830078 189.082855,255.692169 193.184891,245.946213 
	C193.988098,244.037872 198.398209,243.647675 201.441055,242.439651 
	C205.632553,254.308838 209.385941,264.937408 213.324173,276.089417 
	C210.826553,276.089417 208.656403,276.089417 206.205032,276.089417 
	C205.774033,271.421967 203.001953,269.712402 197.967560,270.609924 
M201.852386,263.039612 
	C200.609009,259.487061 199.365616,255.934479 197.718781,251.229187 
	C196.051834,256.340668 194.842453,260.049133 193.380295,264.532654 
	C196.661072,264.285614 199.209885,264.093719 201.852386,263.039612 
z"/>
<path fill="#7DF78A" opacity="1.000000" stroke="none" 
	d="
M29.023052,105.990944 
	C28.898155,105.885818 28.693735,105.801437 28.660097,105.672501 
	C27.983065,103.077286 27.325676,100.476959 26.664331,97.877655 
	C29.459009,97.858192 32.254108,97.805260 35.048103,97.840302 
	C35.851608,97.850380 36.651932,98.114143 37.772820,98.821564 
	C39.011089,100.704201 39.669346,102.375000 40.892670,103.291832 
	C47.727619,108.414261 54.370140,113.921844 61.723270,118.185768 
	C68.155090,121.915436 75.438492,124.176559 82.345695,127.086441 
	C81.965096,129.472687 81.584496,131.858917 80.678871,134.623138 
	C78.843971,134.859116 77.308083,135.113098 76.258942,134.514282 
	C64.912796,128.038223 53.597252,121.505135 42.374931,114.817177 
	C37.796894,112.088890 33.466251,108.945488 29.023052,105.990944 
z"/>
<path fill="#A9F761" opacity="1.000000" stroke="none" 
	d="
M183.052078,170.999374 
	C181.622543,177.832748 176.221268,182.676971 169.290298,183.024521 
	C159.887100,183.496063 150.474518,183.780548 140.327209,183.862518 
	C137.646561,183.386307 135.705246,183.186798 133.762665,183.000473 
	C126.428452,182.296997 119.093834,181.597809 111.759361,180.897018 
	C113.293739,179.005051 114.828125,177.113083 116.834503,175.393555 
	C118.142128,176.030121 118.992653,176.922653 119.811172,176.894211 
	C132.320312,176.459274 144.859772,176.306534 157.319351,175.238602 
	C165.954605,174.498459 174.478455,172.458542 183.052078,170.999374 
z"/>
<path fill="#39F7CC" opacity="1.000000" stroke="none" 
	d="
M106.973824,52.416054 
	C111.273323,53.001610 115.568771,54.127476 119.922050,54.945595 
	C136.297760,58.023144 151.428314,55.309303 164.913498,45.071976 
	C166.486343,43.877937 168.288025,42.985367 170.369507,41.801270 
	C172.072952,43.551323 173.390488,45.453140 174.433304,47.721870 
	C173.470566,48.528687 172.770844,48.951389 172.096298,49.411057 
	C160.306519,57.445107 147.824524,63.765778 133.073685,62.907204 
	C124.715927,62.420738 116.412605,60.998894 108.084770,59.998333 
	C107.721954,57.603909 107.359138,55.209488 106.973824,52.416054 
z"/>
<path fill="#4CF7BA" opacity="1.000000" stroke="none" 
	d="
M180.661774,64.790413 
	C180.987061,66.568138 181.312332,68.345871 181.210785,70.532684 
	C179.824783,71.155739 178.801865,71.222679 177.916336,71.606590 
	C169.767578,75.139374 161.624634,78.687302 153.531525,82.344826 
	C152.415298,82.849281 151.580307,83.976059 150.615112,84.814720 
	C141.575485,81.739410 133.036972,81.926407 124.763626,88.826797 
	C117.344246,87.653107 110.667152,86.324409 103.990059,84.995720 
	C104.377434,82.503944 104.764816,80.012161 105.784775,77.226578 
	C109.504570,77.413803 112.613060,77.787331 115.675415,78.393814 
	C132.142273,81.654968 148.153976,80.641342 163.480331,73.333336 
	C169.252838,70.580841 174.937225,67.643494 180.661774,64.790413 
z"/>
<path fill="#BAF64B" opacity="1.000000" stroke="none" 
	d="
M45.881210,176.405014 
	C52.239567,178.344803 58.443924,181.197342 64.952492,182.856598 
	C79.461807,186.555527 94.059708,189.980789 108.749069,192.868729 
	C116.149376,194.323639 123.827934,194.363190 131.852615,195.075653 
	C131.437714,196.990738 130.550873,198.872925 129.118500,200.653687 
	C124.153595,200.035217 119.745773,199.366730 115.312752,199.028458 
	C99.388206,197.813339 83.889816,194.698288 68.761276,189.505432 
	C63.176498,187.588455 57.284264,186.567200 51.532257,185.137421 
	C49.643257,182.350372 47.754257,179.563324 45.881210,176.405014 
z"/>
<path fill="#65F7A1" opacity="1.000000" stroke="none" 
	d="
M60.417465,81.114777 
	C58.296318,87.777596 55.026890,89.204666 46.340919,86.593712 
	C40.524937,78.910049 35.159786,71.686813 29.692900,64.541412 
	C29.303259,64.032143 28.167376,64.093811 27.378479,63.890007 
	C28.997887,59.382980 30.617290,54.875954 32.856789,50.202980 
	C33.986618,50.416359 34.645653,50.694115 34.983353,51.190483 
	C39.034897,57.145660 42.603821,63.495720 47.190315,68.999741 
	C50.983265,73.551476 55.963367,77.113968 60.417465,81.114777 
z"/>
<path fill="#C0F645" opacity="1.000000" stroke="none" 
	d="
M51.648228,185.473541 
	C57.284264,186.567200 63.176498,187.588455 68.761276,189.505432 
	C83.889816,194.698288 99.388206,197.813339 115.312752,199.028458 
	C119.745773,199.366730 124.153595,200.035217 128.854584,200.875809 
	C128.436478,202.709488 127.736763,204.219604 126.317368,205.898361 
	C123.159615,205.714539 120.728683,205.120529 118.282318,205.048096 
	C100.198784,204.512711 82.776894,200.599792 65.628052,195.112366 
	C64.195961,194.654099 62.433704,195.227631 60.824844,195.321777 
	C57.804626,192.151077 54.784412,188.980377 51.648228,185.473541 
z"/>
<path fill="#73F793" opacity="1.000000" stroke="none" 
	d="
M82.535202,126.778351 
	C75.438492,124.176559 68.155090,121.915436 61.723270,118.185768 
	C54.370140,113.921844 47.727619,108.414261 40.892670,103.291832 
	C39.669346,102.375000 39.011089,100.704201 38.105942,99.002930 
	C43.765244,99.312759 49.410534,100.001167 55.543457,101.060974 
	C56.533230,102.045944 56.912445,102.877922 57.556046,103.240128 
	C66.409248,108.222626 75.298866,113.140419 84.179543,118.074097 
	C83.694595,120.872818 83.209648,123.671539 82.535202,126.778351 
z"/>
<path fill="#86F782" opacity="1.000000" stroke="none" 
	d="
M29.061340,106.350510 
	C33.466251,108.945488 37.796894,112.088890 42.374931,114.817177 
	C53.597252,121.505135 64.912796,128.038223 76.258942,134.514282 
	C77.308083,135.113098 78.843971,134.859116 80.557678,135.001709 
	C80.561897,137.504715 80.162292,140.007141 79.137093,142.775528 
	C70.023148,139.173019 61.495155,135.388443 53.061768,131.403641 
	C48.237961,129.124390 43.568066,126.519409 38.828873,124.061089 
	C35.585793,118.277420 32.342709,112.493752 29.061340,106.350510 
z"/>
<path fill="#46F7BE" opacity="1.000000" stroke="none" 
	d="
M180.636993,64.381409 
	C174.937225,67.643494 169.252838,70.580841 163.480331,73.333336 
	C148.153976,80.641342 132.142273,81.654968 115.675415,78.393814 
	C112.613060,77.787331 109.504570,77.413803 105.940025,76.892769 
	C105.638870,75.177017 105.815056,73.501251 106.480995,71.412445 
	C117.335503,73.552689 127.863914,74.808357 138.503860,73.945297 
	C153.594925,72.721176 167.205017,67.657143 178.520874,57.244160 
	C179.217972,59.486912 179.915085,61.729660 180.636993,64.381409 
z"/>
<path fill="#5CF7AA" opacity="1.000000" stroke="none" 
	d="
M60.622810,80.811554 
	C55.963367,77.113968 50.983265,73.551476 47.190315,68.999741 
	C42.603821,63.495720 39.034897,57.145660 34.983353,51.190483 
	C34.645653,50.694115 33.986618,50.416359 33.112274,49.971619 
	C34.725628,46.547123 36.703590,43.188042 39.368118,39.915958 
	C40.716492,40.711163 41.497028,41.341389 42.021408,42.139843 
	C46.426552,48.847431 50.552387,55.754936 55.267612,62.234539 
	C57.246231,64.953537 60.442863,66.786171 63.085766,69.021767 
	C62.333233,72.850616 61.580696,76.679474 60.622810,80.811554 
z"/>
<path fill="#C7F63E" opacity="1.000000" stroke="none" 
	d="
M61.016590,195.582001 
	C62.433704,195.227631 64.195961,194.654099 65.628052,195.112366 
	C82.776894,200.599792 100.198784,204.512711 118.282318,205.048096 
	C120.728683,205.120529 123.159615,205.714539 126.078560,206.101929 
	C125.615211,208.299118 124.670990,210.461395 123.025482,212.779663 
	C121.214371,212.631973 120.122032,212.188126 118.991898,212.047058 
	C110.700684,211.011948 102.379372,210.193359 94.112038,208.998642 
	C86.339111,207.875351 78.620644,206.375229 70.878220,205.040894 
	C67.654930,201.974670 64.431633,198.908447 61.016590,195.582001 
z"/>
<path fill="#0E0E0E" opacity="1.000000" stroke="none" 
	d="
M76.440857,277.003418 
	C69.421211,274.595215 66.400909,270.379944 66.724319,263.973663 
	C67.006577,258.382599 70.485542,253.916824 75.587257,252.668930 
	C76.545723,252.434494 77.569511,252.186081 78.528603,252.283661 
	C82.772354,252.715424 87.003494,253.271103 91.647591,253.831146 
	C91.647591,260.729980 91.647591,268.300293 91.647591,275.741638 
	C86.717781,276.175568 81.784157,276.609833 76.440857,277.003418 
M76.418518,258.707672 
	C72.726181,260.791107 71.742989,264.277588 73.553566,267.580566 
	C74.568115,269.431396 77.906189,271.335541 79.826836,271.012543 
	C82.016899,270.644196 84.767975,268.173859 85.549889,265.997253 
	C87.202049,261.398193 83.098999,257.981049 76.418518,258.707672 
z"/>
<path fill="#1FF7E6" opacity="1.000000" stroke="none" 
	d="
M152.447723,23.441002 
	C143.709656,30.613853 133.682434,33.279861 122.881035,29.872286 
	C112.769676,26.682396 104.494820,20.933659 101.997017,9.184977 
	C104.811172,8.690062 107.631599,8.591505 110.741486,9.046055 
	C111.941483,11.485412 112.484581,13.698070 113.822731,15.204487 
	C121.973145,24.379766 134.793564,25.803751 145.207611,18.899143 
	C147.558136,20.312634 149.908661,21.726122 152.447723,23.441002 
z"/>
<path fill="#76F793" opacity="1.000000" stroke="none" 
	d="
M169.980087,135.049973 
	C162.108017,134.794220 159.525009,132.656479 159.308868,125.399956 
	C173.023239,123.603302 184.568024,117.616333 196.151474,111.762802 
	C196.597565,111.537376 196.710785,110.653244 196.979111,110.076042 
	C202.593765,115.926208 201.385483,120.962097 193.923462,123.932961 
	C191.009644,125.093048 188.393799,127.001518 184.976868,128.796478 
	C178.982941,129.721130 173.550613,130.171661 169.980087,135.049973 
z"/>
<path fill="#A0F665" opacity="1.000000" stroke="none" 
	d="
M183.079376,170.561066 
	C174.478455,172.458542 165.954605,174.498459 157.319351,175.238602 
	C144.859772,176.306534 132.320312,176.459274 119.811172,176.894211 
	C118.992653,176.922653 118.142128,176.030121 117.106911,175.204803 
	C117.420387,173.378586 117.933449,171.913559 119.095695,170.266266 
	C131.760544,169.913345 143.832794,170.395416 155.773483,169.360153 
	C164.896927,168.569138 173.853851,165.857742 182.884857,164.000580 
	C182.958801,166.041306 183.032745,168.082016 183.079376,170.561066 
z"/>
<path fill="#3EF7C6" opacity="1.000000" stroke="none" 
	d="
M108.005699,60.402290 
	C116.412605,60.998894 124.715927,62.420738 133.073685,62.907204 
	C147.824524,63.765778 160.306519,57.445107 172.096298,49.411057 
	C172.770844,48.951389 173.470566,48.528687 174.495132,48.046440 
	C175.574860,49.426880 176.318054,50.849667 176.763367,52.765194 
	C161.867386,63.984207 145.723145,70.219704 127.408302,68.859535 
	C120.734680,68.363907 114.180229,66.263718 107.571404,64.895584 
	C107.689812,63.532475 107.808220,62.169361 108.005699,60.402290 
z"/>
<path fill="#42F7C2" opacity="1.000000" stroke="none" 
	d="
M107.357056,65.171204 
	C114.180229,66.263718 120.734680,68.363907 127.408302,68.859535 
	C145.723145,70.219704 161.867386,63.984207 176.780273,53.110603 
	C177.572006,54.180820 178.048935,55.398365 178.523376,56.930031 
	C167.205017,67.657143 153.594925,72.721176 138.503860,73.945297 
	C127.863914,74.808357 117.335503,73.552689 106.562401,70.998627 
	C106.483604,69.147514 106.813156,67.297165 107.357056,65.171204 
z"/>
<path fill="#54F7B2" opacity="1.000000" stroke="none" 
	d="
M63.309658,68.719971 
	C60.442863,66.786171 57.246231,64.953537 55.267612,62.234539 
	C50.552387,55.754936 46.426552,48.847431 42.021408,42.139843 
	C41.497028,41.341389 40.716492,40.711163 39.683392,39.822647 
	C41.975967,36.449471 44.639835,33.256599 47.664612,30.289959 
	C51.311157,36.586689 54.278484,42.863075 58.015862,48.641396 
	C59.902790,51.558754 63.184097,53.574245 65.834923,55.997524 
	C65.067802,60.137745 64.300674,64.277962 63.309658,68.719971 
z"/>
<path fill="#0E0E0E" opacity="1.000000" stroke="none" 
	d="
M171.292023,276.708527 
	C168.555435,268.793488 165.637100,261.253082 162.631332,253.486771 
	C166.874313,251.979935 169.485092,252.937119 170.728180,257.477692 
	C171.644775,260.825714 173.124741,264.019531 174.787628,268.434082 
	C176.814758,262.730530 178.496689,257.998199 180.217026,253.157822 
	C182.212570,253.157822 184.158096,253.157822 186.733871,253.157822 
	C183.299088,262.222260 180.208054,270.977600 176.643387,279.535675 
	C174.847672,283.846832 171.161743,286.048126 165.880035,285.809845 
	C165.762299,284.166046 165.648987,282.583984 165.567596,281.447754 
	C167.661316,279.799011 169.385788,278.441071 171.292023,276.708527 
z"/>
<path fill="#101010" opacity="1.000000" stroke="none" 
	d="
M60.872379,276.549255 
	C58.096649,276.649811 55.681122,276.407227 53.437386,276.918488 
	C47.591381,278.250671 42.373859,275.081543 41.946178,269.145996 
	C41.567467,263.890076 41.866810,258.585297 41.866810,253.129791 
	C43.912285,253.129791 45.679516,253.129791 47.929447,253.129791 
	C47.929447,257.587708 47.953224,261.866058 47.921532,266.143951 
	C47.898369,269.270386 49.171600,271.378296 52.479912,271.438721 
	C55.692085,271.497406 57.415089,269.476868 57.552460,266.449738 
	C57.747288,262.156433 57.601902,257.847687 57.601902,253.243774 
	C59.708641,253.243774 61.447906,253.243774 63.841312,253.243774 
	C63.841312,260.413269 63.898163,267.655426 63.731930,274.892456 
	C63.718822,275.463074 62.154343,275.998047 60.872379,276.549255 
z"/>
<path fill="#6DF799" opacity="1.000000" stroke="none" 
	d="
M196.853821,109.762863 
	C196.710785,110.653244 196.597565,111.537376 196.151474,111.762802 
	C184.568024,117.616333 173.023239,123.603302 159.389893,125.000938 
	C159.514008,121.900047 160.062912,118.798424 161.195404,115.347672 
	C164.667465,114.315567 167.765686,114.084648 170.403229,112.860893 
	C177.068939,109.768150 183.527481,106.228951 190.069016,102.868622 
	C192.288864,105.062302 194.508698,107.255997 196.853821,109.762863 
z"/>
<path fill="#99F66C" opacity="1.000000" stroke="none" 
	d="
M182.825760,163.671448 
	C173.853851,165.857742 164.896927,168.569138 155.773483,169.360153 
	C143.832794,170.395416 131.760544,169.913345 119.321358,170.023285 
	C119.122040,168.524689 119.346260,167.086777 120.211746,165.324020 
	C137.508148,165.377136 154.098969,165.026932 170.411896,161.033066 
	C173.908554,160.176987 177.490204,159.667969 181.032715,158.999084 
	C181.610703,160.446838 182.188675,161.894577 182.825760,163.671448 
z"/>
<path fill="#0E0E0E" opacity="1.000000" stroke="none" 
	d="
M112.024399,252.780365 
	C116.084679,254.331390 117.859520,257.207153 117.979874,260.996002 
	C118.137871,265.969513 118.018646,270.951813 118.018646,276.234192 
	C116.018707,276.234192 114.275124,276.234192 111.949883,276.234192 
	C111.949883,272.061218 111.944862,267.953827 111.951485,263.846466 
	C111.956596,260.678345 111.098228,258.107422 107.339775,258.048401 
	C103.424629,257.986908 102.203941,260.553192 102.154762,263.949524 
	C102.097054,267.934662 102.141258,271.921295 102.141258,276.222717 
	C100.123001,276.222717 98.374420,276.222717 96.299126,276.222717 
	C96.299126,268.644104 96.299126,261.083466 96.299126,253.366241 
	C101.416466,253.137436 106.532227,252.908707 112.024399,252.780365 
z"/>
<path fill="#4CF7BA" opacity="1.000000" stroke="none" 
	d="
M65.964844,55.650337 
	C63.184097,53.574245 59.902790,51.558754 58.015862,48.641396 
	C54.278484,42.863075 51.311157,36.586689 47.971565,30.139288 
	C51.051468,27.219482 54.185326,24.676579 57.661057,22.489553 
	C59.055786,30.628300 63.048725,37.051857 67.615845,43.148338 
	C68.362442,44.144947 70.019463,44.459534 71.255692,45.089340 
	C69.535385,48.493946 67.815079,51.898552 65.964844,55.650337 
z"/>
<path fill="#CFF637" opacity="1.000000" stroke="none" 
	d="
M71.036659,205.345123 
	C78.620644,206.375229 86.339111,207.875351 94.112038,208.998642 
	C102.379372,210.193359 110.700684,211.011948 118.991898,212.047058 
	C120.122032,212.188126 121.214371,212.631973 122.751480,212.999390 
	C122.181366,214.820770 121.183975,216.578415 119.634468,218.668350 
	C113.885582,218.438904 108.688568,217.879395 103.492104,217.314835 
	C96.837029,216.591797 90.182404,215.864685 83.527580,215.139313 
	C79.416756,211.975998 75.305923,208.812683 71.036659,205.345123 
z"/>
<path fill="#8BF77B" opacity="1.000000" stroke="none" 
	d="
M121.643944,156.911850 
	C121.846161,155.114471 122.048370,153.317078 122.963928,151.238892 
	C130.628906,150.971786 137.631088,151.507217 144.516800,150.840195 
	C150.417374,150.268585 156.184601,148.320328 162.010803,146.980911 
	C165.755600,147.622238 169.500397,148.263565 173.568420,149.394852 
	C170.850189,151.252411 167.933411,153.239044 164.745804,153.881073 
	C150.532196,156.743942 136.173645,158.226822 121.643944,156.911850 
z"/>
<path fill="#6BF79B" opacity="1.000000" stroke="none" 
	d="
M84.408279,117.768860 
	C75.298866,113.140419 66.409248,108.222626 57.556046,103.240128 
	C56.912445,102.877922 56.533230,102.045944 55.973457,101.066681 
	C58.643429,99.482826 61.371033,98.264671 64.811272,97.034721 
	C67.075005,97.929070 68.568405,98.958031 70.187798,99.718826 
	C75.501251,102.215096 80.860458,104.613976 86.202072,107.050278 
	C85.680389,110.521393 85.158707,113.992508 84.408279,117.768860 
z"/>
<path fill="#90F674" opacity="1.000000" stroke="none" 
	d="
M121.422607,157.203857 
	C136.173645,158.226822 150.532196,156.743942 164.745804,153.881073 
	C167.933411,153.239044 170.850189,151.252411 173.944550,149.537018 
	C176.780716,149.761429 179.605789,150.194168 182.317200,151.006332 
	C182.974838,151.203308 183.257858,152.650970 183.079971,153.787323 
	C179.118988,155.010513 175.819244,156.084290 172.458572,156.910049 
	C155.443787,161.090729 138.138611,162.359024 120.672417,161.922012 
	C120.848701,160.446625 121.024979,158.971237 121.422607,157.203857 
z"/>
<path fill="#1CF7EC" opacity="1.000000" stroke="none" 
	d="
M144.987289,18.624775 
	C134.793564,25.803751 121.973145,24.379766 113.822731,15.204487 
	C112.484581,13.698070 111.941483,11.485412 111.043678,9.216494 
	C123.078064,9.226071 134.211884,12.763185 144.987289,18.624775 
z"/>
<path fill="#65F7A1" opacity="1.000000" stroke="none" 
	d="
M189.999664,102.542908 
	C183.527481,106.228951 177.068939,109.768150 170.403229,112.860893 
	C167.765686,114.084648 164.667465,114.315567 161.369583,114.999786 
	C161.433487,111.570183 161.906830,108.139320 162.948013,104.350891 
	C170.506561,101.258942 177.497253,98.524582 184.487946,95.790222 
	C186.302078,97.932556 188.116196,100.074875 189.999664,102.542908 
z"/>
<path fill="#62F7AA" opacity="1.000000" stroke="none" 
	d="
M129.951035,112.989563 
	C130.439880,109.561134 130.681458,106.074341 131.473953,102.717598 
	C132.748810,97.317627 137.234985,94.473259 142.138214,95.576180 
	C147.970215,96.888016 150.586136,101.004662 149.371643,106.979515 
	C149.075836,108.434814 148.742279,109.882446 147.769440,111.666359 
	C141.392212,112.329262 135.671616,112.659416 129.951035,112.989563 
z"/>
<path fill="#0E0E0E" opacity="1.000000" stroke="none" 
	d="
M156.125046,269.886536 
	C156.125061,272.181122 156.125061,273.998993 156.125061,276.178314 
	C154.048676,276.178314 152.185226,276.178314 149.957626,276.178314 
	C149.957626,272.683197 150.208588,269.369659 149.881226,266.114319 
	C149.600311,263.320953 151.981155,259.365936 146.935684,258.070374 
	C146.625031,257.990601 146.703003,254.729385 147.300812,253.227219 
	C147.958359,251.574844 149.776825,250.393463 150.474670,248.746384 
	C152.390579,244.224442 155.830536,242.719635 160.764389,242.959808 
	C160.764389,244.711639 160.764389,246.433136 160.764389,247.738480 
	C159.022705,249.098312 157.431335,250.340790 155.839966,251.583267 
	C156.044846,251.952103 156.249725,252.320923 156.454605,252.689758 
	C157.851761,252.846451 159.248901,253.003159 160.918289,253.190399 
	C160.997787,254.958054 161.069763,256.558685 161.152313,258.394226 
	C159.502655,258.650452 158.075226,258.872162 156.125031,259.175049 
	C156.125031,262.527435 156.125031,265.968628 156.125046,269.886536 
z"/>
<path fill="#44F7C3" opacity="1.000000" stroke="none" 
	d="
M71.534546,44.950275 
	C70.019463,44.459534 68.362442,44.144947 67.615845,43.148338 
	C63.048725,37.051857 59.055786,30.628300 58.002579,22.446949 
	C60.748550,20.338556 63.494873,18.628645 66.618073,17.286144 
	C67.628029,19.689920 68.040337,21.829597 68.935783,23.743196 
	C71.573891,29.380976 74.403458,34.929165 77.158089,40.512421 
	C75.376526,41.945351 73.594971,43.378281 71.534546,44.950275 
z"/>
<path fill="#8EF77B" opacity="1.000000" stroke="none" 
	d="
M38.911137,124.398956 
	C43.568066,126.519409 48.237961,129.124390 53.061768,131.403641 
	C61.495155,135.388443 70.023148,139.173019 78.928055,143.081543 
	C79.069817,145.223602 78.795013,147.325638 77.886658,149.672852 
	C73.147530,148.269485 69.005501,146.705353 64.945000,144.952408 
	C58.968853,142.372452 53.050850,139.657791 47.108078,137.000519 
	C44.403187,132.912628 41.698296,128.824722 38.911137,124.398956 
z"/>
<path fill="#0E0E0E" opacity="1.000000" stroke="none" 
	d="
M123.917908,250.893951 
	C125.409912,248.984116 126.904900,247.489792 128.399887,245.995453 
	C128.818512,246.273682 129.237152,246.551910 129.655777,246.830139 
	C129.856445,248.685623 130.057098,250.541107 130.293167,252.723953 
	C131.855148,252.872849 133.416275,253.021652 135.126968,253.184708 
	C135.126968,255.044022 135.126968,256.648834 135.126968,258.592621 
	C133.433365,258.760010 131.877106,258.913788 130.368958,259.062836 
	C129.229324,269.907562 129.368332,270.274231 135.159882,271.622589 
	C135.159882,273.039734 135.159882,274.493225 135.159882,275.908447 
	C127.839531,278.003418 124.064133,275.399719 123.926178,268.250183 
	C123.871902,265.437408 123.917290,262.622711 123.095078,260.342102 
	C121.680740,258.426453 120.266411,256.510834 118.909607,254.673141 
	C121.294861,253.072098 122.607872,252.190781 123.917908,250.893951 
z"/>
<path fill="#3FF7CC" opacity="1.000000" stroke="none" 
	d="
M77.564026,40.413311 
	C74.403458,34.929165 71.573891,29.380976 68.935783,23.743196 
	C68.040337,21.829597 67.628029,19.689920 66.978493,17.255768 
	C69.740074,15.651224 72.518105,14.444467 75.658005,13.264387 
	C77.439621,22.939274 82.065842,30.920019 88.889839,38.103710 
	C85.326729,39.031147 81.648346,39.672676 77.564026,40.413311 
z"/>
<path fill="#59F7B2" opacity="1.000000" stroke="none" 
	d="
M103.744507,85.287094 
	C110.667152,86.324409 117.344246,87.653107 124.450478,88.969559 
	C122.916061,93.062714 120.952499,97.168106 118.467438,101.632568 
	C112.362282,100.993431 106.778625,99.995224 101.194969,98.997009 
	C101.962959,94.524162 102.730957,90.051315 103.744507,85.287094 
z"/>
<path fill="#84F784" opacity="1.000000" stroke="none" 
	d="
M161.761688,146.745850 
	C156.184601,148.320328 150.417374,150.268585 144.516800,150.840195 
	C137.631088,151.507217 130.628906,150.971786 123.181564,150.922821 
	C122.947884,148.783707 123.209900,146.679855 124.194756,144.286850 
	C134.232742,143.355667 143.547897,142.713608 152.863052,142.071564 
	C155.746231,143.551300 158.629410,145.031036 161.761688,146.745850 
z"/>
<path fill="#D8F634" opacity="1.000000" stroke="none" 
	d="
M83.722458,215.432892 
	C90.182404,215.864685 96.837029,216.591797 103.492104,217.314835 
	C108.688568,217.879395 113.885582,218.438904 119.524185,219.000702 
	C118.720764,221.223129 117.955070,224.060303 116.103111,225.504929 
	C114.010429,227.137344 110.293938,229.007660 108.409195,228.187576 
	C100.025200,224.539566 92.044090,219.965668 83.722458,215.432892 
z"/>
<path fill="#AEF75B" opacity="1.000000" stroke="none" 
	d="
M83.813057,180.717468 
	C72.639671,181.127029 63.125324,175.359314 53.030128,171.495300 
	C51.184719,170.788971 49.421127,169.868866 47.248528,168.999817 
	C47.399124,167.131958 47.920963,165.311676 49.071171,163.238708 
	C52.014606,163.761734 54.323956,164.555054 56.645809,165.309875 
	C63.476524,167.530579 70.312202,169.736008 77.145943,171.947418 
	C79.319695,174.771576 81.493454,177.595734 83.813057,180.717468 
z"/>
<path fill="#71F79B" opacity="1.000000" stroke="none" 
	d="
M27.197971,64.185944 
	C28.167376,64.093811 29.303259,64.032143 29.692900,64.541412 
	C35.159786,71.686813 40.524937,78.910049 45.960655,86.446243 
	C39.998741,85.794029 33.942562,85.021103 28.020588,83.662979 
	C26.700144,83.360146 24.876312,80.940254 24.959019,79.598289 
	C25.270996,74.536430 26.273487,69.517120 27.197971,64.185944 
z"/>
<path fill="#63F7A6" opacity="1.000000" stroke="none" 
	d="
M100.987335,99.337189 
	C106.778625,99.995224 112.362282,100.993431 118.334305,101.990204 
	C118.028481,106.144936 117.334290,110.301094 115.992157,114.734940 
	C109.872375,113.666306 104.400543,112.320000 98.928711,110.973686 
	C99.545708,107.208244 100.162697,103.442802 100.987335,99.337189 
z"/>
<path fill="#151515" opacity="1.000000" stroke="none" 
	d="
M221.827499,270.776947 
	C221.827515,272.740295 221.827515,274.234863 221.827515,276.151428 
	C219.638062,276.151428 217.603485,276.151428 215.319199,276.151428 
	C215.319199,265.473267 215.319199,254.871078 215.319199,243.873932 
	C217.265625,243.873932 219.305527,243.873932 221.827484,243.873932 
	C221.827484,252.759109 221.827484,261.533630 221.827499,270.776947 
z"/>
<path fill="#6BF7A0" opacity="1.000000" stroke="none" 
	d="
M129.707474,113.283836 
	C135.671616,112.659416 141.392212,112.329262 147.584549,111.999252 
	C147.430283,115.752136 146.804260,119.504883 145.622360,123.629639 
	C139.221710,124.331680 133.376953,124.661705 127.532196,124.991730 
	C128.176102,121.187187 128.820007,117.382645 129.707474,113.283836 
z"/>
<path fill="#A4F662" opacity="1.000000" stroke="none" 
	d="
M77.111671,171.540527 
	C70.312202,169.736008 63.476524,167.530579 56.645809,165.309875 
	C54.323956,164.555054 52.014606,163.761734 49.296776,162.973175 
	C49.253384,160.564178 49.612759,158.168015 50.478859,155.387299 
	C54.381691,156.198853 57.751701,157.476685 61.180161,158.571487 
	C66.030724,160.120422 70.924416,161.534256 75.799675,163.005844 
	C76.225586,165.715103 76.651497,168.424377 77.111671,171.540527 
z"/>
<path fill="#5CF7AA" opacity="1.000000" stroke="none" 
	d="
M184.267639,95.483841 
	C177.497253,98.524582 170.506561,101.258942 163.091003,103.996384 
	C162.033829,101.311142 161.401550,98.622810 161.066132,95.397583 
	C167.977386,92.216705 174.591797,89.572723 181.206207,86.928741 
	C182.153244,89.678322 183.100296,92.427887 184.267639,95.483841 
z"/>
<path fill="#65F7A4" opacity="1.000000" stroke="none" 
	d="
M86.430298,106.752960 
	C80.860458,104.613976 75.501251,102.215096 70.187798,99.718826 
	C68.568405,98.958031 67.075005,97.929070 65.154045,96.969437 
	C66.883263,94.374954 68.982330,91.833954 71.706970,89.133575 
	C77.656990,91.341805 82.981430,93.709412 88.305870,96.077019 
	C87.756752,99.536560 87.207634,102.996094 86.430298,106.752960 
z"/>
<path fill="#54F7B2" opacity="1.000000" stroke="none" 
	d="
M181.219742,86.525711 
	C174.591797,89.572723 167.977386,92.216705 161.004272,95.016312 
	C159.093750,93.152580 157.541916,91.133232 156.064621,88.466812 
	C163.588715,84.319427 171.020325,80.779755 178.509415,77.366150 
	C179.500504,76.914406 180.784317,77.104904 181.932571,76.997955 
	C181.699478,80.039536 181.466370,83.081108 181.219742,86.525711 
z"/>
<path fill="#73F793" opacity="1.000000" stroke="none" 
	d="
M127.348534,125.378822 
	C133.376953,124.661705 139.221710,124.331680 145.500214,124.002251 
	C146.429108,127.342659 146.924286,130.682480 147.027527,134.506042 
	C139.624908,135.299545 132.614212,135.609268 125.603531,135.918991 
	C126.123970,132.534637 126.644417,129.150269 127.348534,125.378822 
z"/>
<path fill="#95F772" opacity="1.000000" stroke="none" 
	d="
M47.115124,137.378601 
	C53.050850,139.657791 58.968853,142.372452 64.945000,144.952408 
	C69.005501,146.705353 73.147530,148.269485 77.626953,149.959412 
	C77.723587,151.765778 77.446350,153.530777 76.620560,155.648804 
	C72.657562,154.976028 69.203072,154.065643 65.837837,152.897995 
	C60.478741,151.038574 55.179100,149.007797 49.854317,147.049484 
	C48.943600,143.951889 48.032883,140.854294 47.115124,137.378601 
z"/>
<path fill="#95F772" opacity="1.000000" stroke="none" 
	d="
M120.462738,162.171967 
	C138.138611,162.359024 155.443787,161.090729 172.458572,156.910049 
	C175.819244,156.084290 179.118988,155.010513 182.868042,154.078339 
	C182.587708,155.514542 181.886154,156.923508 181.108673,158.665771 
	C177.490204,159.667969 173.908554,160.176987 170.411896,161.033066 
	C154.098969,165.026932 137.508148,165.377136 120.374573,164.997864 
	C120.015114,164.138367 120.134087,163.280151 120.462738,162.171967 
z"/>
<path fill="#5DF7AE" opacity="1.000000" stroke="none" 
	d="
M88.509544,95.778214 
	C82.981430,93.709412 77.656990,91.341805 71.939629,88.911720 
	C72.434250,85.396286 73.321785,81.943321 74.813202,78.221207 
	C77.206818,78.710686 78.978638,79.515518 80.790169,80.217941 
	C84.114693,81.507034 87.462616,82.735748 90.800789,83.989632 
	C90.104927,87.819557 89.409073,91.649483 88.509544,95.778214 
z"/>
<path fill="#6EF79E" opacity="1.000000" stroke="none" 
	d="
M98.684830,111.273239 
	C104.400543,112.320000 109.872375,113.666306 115.767113,115.042374 
	C115.637787,118.520325 115.085556,121.968521 113.895752,125.706177 
	C107.743958,124.974854 102.229736,123.954079 96.715523,122.933304 
	C97.290665,119.146461 97.865807,115.359627 98.684830,111.273239 
z"/>
<path fill="#7DF78A" opacity="1.000000" stroke="none" 
	d="
M125.414001,136.220413 
	C132.614212,135.609268 139.624908,135.299545 147.104675,134.916275 
	C149.247772,137.053345 150.921783,139.263947 152.729431,141.773056 
	C143.547897,142.713608 134.232742,143.355667 124.447784,143.995392 
	C124.393478,141.502655 124.808983,139.012238 125.414001,136.220413 
z"/>
<path fill="#9EF76F" opacity="1.000000" stroke="none" 
	d="
M107.125816,162.029007 
	C106.582466,168.698624 103.891403,172.366318 99.121628,172.938034 
	C94.417229,173.501938 90.183174,171.205734 89.045654,166.746994 
	C88.475029,164.510330 89.236290,161.933853 90.033852,159.250946 
	C96.156937,160.003571 101.641380,161.016296 107.125816,162.029007 
z"/>
<path fill="#9CF76B" opacity="1.000000" stroke="none" 
	d="
M49.848923,147.490814 
	C55.179100,149.007797 60.478741,151.038574 65.837837,152.897995 
	C69.203072,154.065643 72.657562,154.976028 76.470352,156.002533 
	C76.580666,158.080566 76.292641,160.157913 75.902145,162.620544 
	C70.924416,161.534256 66.030724,160.120422 61.180161,158.571487 
	C57.751701,157.476685 54.381691,156.198853 50.597023,155.003464 
	C50.086819,152.646851 49.965176,150.289490 49.848923,147.490814 
z"/>
<path fill="#76F793" opacity="1.000000" stroke="none" 
	d="
M96.501190,123.238541 
	C102.229736,123.954079 107.743958,124.974854 113.672241,126.012924 
	C113.487526,129.452698 112.888741,132.875183 111.738037,136.600311 
	C105.675896,135.908463 100.165657,134.913971 94.655426,133.919495 
	C95.199234,130.460922 95.743050,127.002357 96.501190,123.238541 
z"/>
<path fill="#4FF7B7" opacity="1.000000" stroke="none" 
	d="
M90.928047,83.611099 
	C87.462616,82.735748 84.114693,81.507034 80.790169,80.217941 
	C78.978638,79.515518 77.206818,78.710686 75.007736,77.914688 
	C75.297180,74.152023 75.995979,70.426727 77.225960,66.354935 
	C79.142273,66.808029 80.502258,67.655540 81.917450,68.397820 
	C85.523911,70.289421 89.155022,72.134033 92.776276,73.997444 
	C92.202621,77.075821 91.628967,80.154190 90.928047,83.611099 
z"/>
<path fill="#AEF75B" opacity="1.000000" stroke="none" 
	d="
M111.434189,180.979706 
	C119.093834,181.597809 126.428452,182.296997 133.762665,183.000473 
	C135.705246,183.186798 137.646561,183.386307 139.870056,183.917084 
	C138.767563,185.753632 137.383438,187.252884 135.781647,188.943970 
	C127.662384,188.755264 119.747368,188.539764 111.866982,187.898697 
	C109.336990,187.692871 106.898407,186.363403 104.198944,185.252045 
	C106.356262,183.658188 108.732643,182.360291 111.434189,180.979706 
z"/>
<path fill="#4FF7B7" opacity="1.000000" stroke="none" 
	d="
M182.005829,76.606941 
	C180.784317,77.104904 179.500504,76.914406 178.509415,77.366150 
	C171.020325,80.779755 163.588715,84.319427 155.943588,88.170944 
	C154.157532,87.440727 152.567062,86.359329 150.795837,85.046326 
	C151.580307,83.976059 152.415298,82.849281 153.531525,82.344826 
	C161.624634,78.687302 169.767578,75.139374 177.916336,71.606590 
	C178.801865,71.222679 179.824783,71.155739 181.218552,70.923721 
	C181.795120,72.675751 181.937119,74.445839 182.005829,76.606941 
z"/>
<path fill="#92F779" opacity="1.000000" stroke="none" 
	d="
M107.340065,161.725403 
	C101.641380,161.016296 96.156937,160.003571 90.251038,158.964630 
	C90.260361,156.126068 90.691132,153.313721 91.751419,150.214859 
	C97.849716,150.949326 103.318497,151.970337 108.787262,152.991333 
	C108.376282,155.801483 107.965302,158.611649 107.340065,161.725403 
z"/>
<path fill="#101010" opacity="1.000000" stroke="none" 
	d="
M144.239685,270.672028 
	C144.239716,272.759521 144.239716,274.389038 144.239716,276.276855 
	C142.159515,276.276855 140.429657,276.276855 138.065094,276.276855 
	C138.065094,272.460205 138.065094,268.719818 138.065094,264.979431 
	C138.065094,261.197052 138.065094,257.414673 138.065094,253.287338 
	C140.210129,253.287338 142.069351,253.287338 144.239639,253.287338 
	C144.239639,258.996857 144.239639,264.605438 144.239685,270.672028 
z"/>
<path fill="#4CF7BA" opacity="1.000000" stroke="none" 
	d="
M92.922340,73.634933 
	C89.155022,72.134033 85.523911,70.289421 81.917450,68.397820 
	C80.502258,67.655540 79.142273,66.808029 77.392471,66.003876 
	C77.609192,63.233486 78.190582,60.467674 79.298172,57.355476 
	C81.569588,57.893944 83.344131,58.725971 85.053650,59.675121 
	C88.187523,61.415104 91.283020,63.224190 94.394516,65.004463 
	C93.952484,67.760452 93.510445,70.516441 92.922340,73.634933 
z"/>
<path fill="#86F782" opacity="1.000000" stroke="none" 
	d="
M108.996994,152.642059 
	C103.318497,151.970337 97.849716,150.949326 91.916824,149.883789 
	C91.786613,147.423935 92.120522,145.008606 93.137001,142.291931 
	C99.378540,142.695618 104.937523,143.400665 110.496506,144.105713 
	C110.066582,146.834732 109.636650,149.563751 108.996994,152.642059 
z"/>
<path fill="#7DF78A" opacity="1.000000" stroke="none" 
	d="
M110.672455,143.803650 
	C104.937523,143.400665 99.378540,142.695618 93.378448,141.983154 
	C93.378075,139.488266 93.818810,137.000793 94.457489,134.216400 
	C100.165657,134.913971 105.675896,135.908463 111.572708,136.950836 
	C111.588989,139.166351 111.218697,141.333984 110.672455,143.803650 
z"/>
<path fill="#44F7C3" opacity="1.000000" stroke="none" 
	d="
M94.586197,64.643959 
	C91.283020,63.224190 88.187523,61.415104 85.053650,59.675121 
	C83.344131,58.725971 81.569588,57.893944 79.464218,57.003426 
	C81.181244,52.109806 85.170753,49.929192 89.489906,51.320995 
	C94.647385,52.982941 96.498306,57.520134 94.586197,64.643959 
z"/>
<path fill="#83F790" opacity="1.000000" stroke="none" 
	d="
M170.271271,135.298767 
	C173.550613,130.171661 178.982941,129.721130 184.741058,129.044174 
	C185.171387,129.228378 185.155716,129.394257 185.175339,129.555832 
	C186.249451,138.394730 186.247101,138.410553 177.284119,136.898849 
	C175.031662,136.518967 172.802399,136.001709 170.271271,135.298767 
z"/>
<path fill="#101010" opacity="1.000000" stroke="none" 
	d="
M143.677872,243.642944 
	C143.711105,245.760742 143.836929,247.776489 143.085083,249.380966 
	C142.849411,249.883896 139.767014,249.824661 138.871231,249.028549 
	C137.982895,248.239059 137.578384,245.193283 138.061432,244.890274 
	C139.572296,243.942520 141.602524,243.822693 143.677872,243.642944 
z"/>
<path fill="#AEF75B" opacity="1.000000" stroke="none" 
	d="
M99.696838,185.616577 
	C99.076065,185.979797 98.169434,186.178650 97.103821,186.124969 
	C97.766884,185.732361 98.588936,185.592300 99.696838,185.616577 
z"/>
<path fill="#F4F4F4" opacity="1.000000" stroke="none" 
	d="
M21.898323,249.206390 
	C31.339705,251.207840 34.559162,257.650208 30.317085,266.133240 
	C28.330992,264.301636 26.436499,262.554504 24.352020,260.632172 
	C22.883921,261.946747 21.547726,263.143250 20.103182,264.436737 
	C21.693823,266.299347 23.153679,268.008789 24.663506,269.776764 
	C18.650303,271.859375 12.944972,268.927765 11.336668,263.110291 
	C9.397238,256.095123 13.393576,250.626450 21.898323,249.206390 
z"/>
<path fill="#F4F4F4" opacity="1.000000" stroke="none" 
	d="
M201.805542,263.470703 
	C199.209885,264.093719 196.661072,264.285614 193.380295,264.532654 
	C194.842453,260.049133 196.051834,256.340668 197.718781,251.229187 
	C199.365616,255.934479 200.609009,259.487061 201.805542,263.470703 
z"/>
<path fill="#F4F4F4" opacity="1.000000" stroke="none" 
	d="
M76.772919,258.539185 
	C83.098999,257.981049 87.202049,261.398193 85.549889,265.997253 
	C84.767975,268.173859 82.016899,270.644196 79.826836,271.012543 
	C77.906189,271.335541 74.568115,269.431396 73.553566,267.580566 
	C71.742989,264.277588 72.726181,260.791107 76.772919,258.539185 
z"/>
</svg>